# Wavefront OBJ file automatically generated by Tiled2Unity

# Vertices (Count = 441)
v 0 -32 0
v -32 -32 0
v -32 0 0
v 0 0 0
v -64 -32 0
v -64 0 0
v -96 -32 0
v -96 0 0
v -128 -32 0
v -128 0 0
v -160 -32 0
v -160 0 0
v -192 -32 0
v -192 0 0
v -224 -32 0
v -224 0 0
v -256 -32 0
v -256 0 0
v -288 -32 0
v -288 0 0
v -320 -32 0
v -320 0 0
v -352 -32 0
v -352 0 0
v -384 -32 0
v -384 0 0
v -416 -32 0
v -416 0 0
v -448 -32 0
v -448 0 0
v -480 -32 0
v -480 0 0
v -512 -32 0
v -512 0 0
v -544 -32 0
v -544 0 0
v -576 -32 0
v -576 0 0
v -608 -32 0
v -608 0 0
v -640 -32 0
v -640 0 0
v 0 -64 0
v -32 -64 0
v -64 -64 0
v -96 -64 0
v -128 -64 0
v -160 -64 0
v -192 -64 0
v -224 -64 0
v -256 -64 0
v -288 -64 0
v -320 -64 0
v -352 -64 0
v -384 -64 0
v -416 -64 0
v -448 -64 0
v -480 -64 0
v -512 -64 0
v -544 -64 0
v -576 -64 0
v -608 -64 0
v -640 -64 0
v 0 -96 0
v -32 -96 0
v -64 -96 0
v -96 -96 0
v -128 -96 0
v -160 -96 0
v -192 -96 0
v -224 -96 0
v -256 -96 0
v -288 -96 0
v -320 -96 0
v -352 -96 0
v -384 -96 0
v -416 -96 0
v -448 -96 0
v -480 -96 0
v -512 -96 0
v -544 -96 0
v -576 -96 0
v -608 -96 0
v -640 -96 0
v 0 -128 0
v -32 -128 0
v -64 -128 0
v -96 -128 0
v -128 -128 0
v -160 -128 0
v -192 -128 0
v -224 -128 0
v -256 -128 0
v -288 -128 0
v -320 -128 0
v -352 -128 0
v -384 -128 0
v -416 -128 0
v -448 -128 0
v -480 -128 0
v -512 -128 0
v -544 -128 0
v -576 -128 0
v -608 -128 0
v -640 -128 0
v 0 -160 0
v -32 -160 0
v -64 -160 0
v -96 -160 0
v -128 -160 0
v -160 -160 0
v -192 -160 0
v -224 -160 0
v -256 -160 0
v -288 -160 0
v -320 -160 0
v -352 -160 0
v -384 -160 0
v -416 -160 0
v -448 -160 0
v -480 -160 0
v -512 -160 0
v -544 -160 0
v -576 -160 0
v -608 -160 0
v -640 -160 0
v 0 -192 0
v -32 -192 0
v -64 -192 0
v -96 -192 0
v -128 -192 0
v -160 -192 0
v -192 -192 0
v -224 -192 0
v -256 -192 0
v -288 -192 0
v -320 -192 0
v -352 -192 0
v -384 -192 0
v -416 -192 0
v -448 -192 0
v -480 -192 0
v -512 -192 0
v -544 -192 0
v -576 -192 0
v -608 -192 0
v -640 -192 0
v 0 -224 0
v -32 -224 0
v -64 -224 0
v -96 -224 0
v -128 -224 0
v -160 -224 0
v -192 -224 0
v -224 -224 0
v -256 -224 0
v -288 -224 0
v -320 -224 0
v -352 -224 0
v -384 -224 0
v -416 -224 0
v -448 -224 0
v -480 -224 0
v -512 -224 0
v -544 -224 0
v -576 -224 0
v -608 -224 0
v -640 -224 0
v 0 -256 0
v -32 -256 0
v -64 -256 0
v -96 -256 0
v -128 -256 0
v -160 -256 0
v -192 -256 0
v -224 -256 0
v -256 -256 0
v -288 -256 0
v -320 -256 0
v -352 -256 0
v -384 -256 0
v -416 -256 0
v -448 -256 0
v -480 -256 0
v -512 -256 0
v -544 -256 0
v -576 -256 0
v -608 -256 0
v -640 -256 0
v 0 -288 0
v -32 -288 0
v -64 -288 0
v -96 -288 0
v -128 -288 0
v -160 -288 0
v -192 -288 0
v -224 -288 0
v -256 -288 0
v -288 -288 0
v -320 -288 0
v -352 -288 0
v -384 -288 0
v -416 -288 0
v -448 -288 0
v -480 -288 0
v -512 -288 0
v -544 -288 0
v -576 -288 0
v -608 -288 0
v -640 -288 0
v 0 -320 0
v -32 -320 0
v -64 -320 0
v -96 -320 0
v -128 -320 0
v -160 -320 0
v -192 -320 0
v -224 -320 0
v -256 -320 0
v -288 -320 0
v -320 -320 0
v -352 -320 0
v -384 -320 0
v -416 -320 0
v -448 -320 0
v -480 -320 0
v -512 -320 0
v -544 -320 0
v -576 -320 0
v -608 -320 0
v -640 -320 0
v 0 -352 0
v -32 -352 0
v -64 -352 0
v -96 -352 0
v -128 -352 0
v -160 -352 0
v -192 -352 0
v -224 -352 0
v -256 -352 0
v -288 -352 0
v -320 -352 0
v -352 -352 0
v -384 -352 0
v -416 -352 0
v -448 -352 0
v -480 -352 0
v -512 -352 0
v -544 -352 0
v -576 -352 0
v -608 -352 0
v -640 -352 0
v 0 -384 0
v -32 -384 0
v -64 -384 0
v -96 -384 0
v -128 -384 0
v -160 -384 0
v -192 -384 0
v -224 -384 0
v -256 -384 0
v -288 -384 0
v -320 -384 0
v -352 -384 0
v -384 -384 0
v -416 -384 0
v -448 -384 0
v -480 -384 0
v -512 -384 0
v -544 -384 0
v -576 -384 0
v -608 -384 0
v -640 -384 0
v 0 -416 0
v -32 -416 0
v -64 -416 0
v -96 -416 0
v -128 -416 0
v -160 -416 0
v -192 -416 0
v -224 -416 0
v -256 -416 0
v -288 -416 0
v -320 -416 0
v -352 -416 0
v -384 -416 0
v -416 -416 0
v -448 -416 0
v -480 -416 0
v -512 -416 0
v -544 -416 0
v -576 -416 0
v -608 -416 0
v -640 -416 0
v 0 -448 0
v -32 -448 0
v -64 -448 0
v -96 -448 0
v -128 -448 0
v -160 -448 0
v -192 -448 0
v -224 -448 0
v -256 -448 0
v -288 -448 0
v -320 -448 0
v -352 -448 0
v -384 -448 0
v -416 -448 0
v -448 -448 0
v -480 -448 0
v -512 -448 0
v -544 -448 0
v -576 -448 0
v -608 -448 0
v -640 -448 0
v 0 -480 0
v -32 -480 0
v -64 -480 0
v -96 -480 0
v -128 -480 0
v -160 -480 0
v -192 -480 0
v -224 -480 0
v -256 -480 0
v -288 -480 0
v -320 -480 0
v -352 -480 0
v -384 -480 0
v -416 -480 0
v -448 -480 0
v -480 -480 0
v -512 -480 0
v -544 -480 0
v -576 -480 0
v -608 -480 0
v -640 -480 0
v 0 -512 0
v -32 -512 0
v -64 -512 0
v -96 -512 0
v -128 -512 0
v -160 -512 0
v -192 -512 0
v -224 -512 0
v -256 -512 0
v -288 -512 0
v -320 -512 0
v -352 -512 0
v -384 -512 0
v -416 -512 0
v -448 -512 0
v -480 -512 0
v -512 -512 0
v -544 -512 0
v -576 -512 0
v -608 -512 0
v -640 -512 0
v 0 -544 0
v -32 -544 0
v -64 -544 0
v -96 -544 0
v -128 -544 0
v -160 -544 0
v -192 -544 0
v -224 -544 0
v -256 -544 0
v -288 -544 0
v -320 -544 0
v -352 -544 0
v -384 -544 0
v -416 -544 0
v -448 -544 0
v -480 -544 0
v -512 -544 0
v -544 -544 0
v -576 -544 0
v -608 -544 0
v -640 -544 0
v 0 -576 0
v -32 -576 0
v -64 -576 0
v -96 -576 0
v -128 -576 0
v -160 -576 0
v -192 -576 0
v -224 -576 0
v -256 -576 0
v -288 -576 0
v -320 -576 0
v -352 -576 0
v -384 -576 0
v -416 -576 0
v -448 -576 0
v -480 -576 0
v -512 -576 0
v -544 -576 0
v -576 -576 0
v -608 -576 0
v -640 -576 0
v 0 -608 0
v -32 -608 0
v -64 -608 0
v -96 -608 0
v -128 -608 0
v -160 -608 0
v -192 -608 0
v -224 -608 0
v -256 -608 0
v -288 -608 0
v -320 -608 0
v -352 -608 0
v -384 -608 0
v -416 -608 0
v -448 -608 0
v -480 -608 0
v -512 -608 0
v -544 -608 0
v -576 -608 0
v -608 -608 0
v -640 -608 0
v 0 -640 0
v -32 -640 0
v -64 -640 0
v -96 -640 0
v -128 -640 0
v -160 -640 0
v -192 -640 0
v -224 -640 0
v -256 -640 0
v -288 -640 0
v -320 -640 0
v -352 -640 0
v -384 -640 0
v -416 -640 0
v -448 -640 0
v -480 -640 0
v -512 -640 0
v -544 -640 0
v -576 -640 0
v -608 -640 0
v -640 -640 0

# Texture Coorindates (Count = 40)
vt 0.2188721 0.952503
vt 0.2498779 0.952503
vt 0.2498779 0.9681319
vt 0.2188721 0.9681319
vt 0.06262207 0.952503
vt 0.09362793 0.952503
vt 0.09362793 0.9681319
vt 0.06262207 0.9681319
vt 0.1876221 0.952503
vt 0.2186279 0.952503
vt 0.2186279 0.9681319
vt 0.1876221 0.9681319
vt 0.03137207 0.6985348
vt 0.06237793 0.6985348
vt 0.06237793 0.7141637
vt 0.03137207 0.7141637
vt 0.1876221 0.3175824
vt 0.2186279 0.3175824
vt 0.2186279 0.3332113
vt 0.1876221 0.3332113
vt 0.2188721 0.3175824
vt 0.2498779 0.3175824
vt 0.2498779 0.3332113
vt 0.2188721 0.3332113
vt 0.1563721 0.2858364
vt 0.1873779 0.2858364
vt 0.1873779 0.3014652
vt 0.1563721 0.3014652
vt 0.1876221 0.3017094
vt 0.2186279 0.3017094
vt 0.2186279 0.3173383
vt 0.1876221 0.3173383
vt 0.2188721 0.3017094
vt 0.2498779 0.3017094
vt 0.2498779 0.3173383
vt 0.2188721 0.3173383
vt 0.1563721 0.2699634
vt 0.1873779 0.2699634
vt 0.1873779 0.2855922
vt 0.1563721 0.2855922

# Normal
vn 0 0 -1

# Groups (Count = 2)
g mesh_[00]_[00]
f  1/1/1  2/2/1  3/3/1  4/4/1 
f  2/1/1  5/2/1  6/3/1  3/4/1 
f  5/1/1  7/2/1  8/3/1  6/4/1 
f  7/1/1  9/2/1  10/3/1  8/4/1 
f  9/1/1  11/2/1  12/3/1  10/4/1 
f  11/5/1  13/6/1  14/7/1  12/8/1 
f  13/5/1  15/6/1  16/7/1  14/8/1 
f  15/5/1  17/6/1  18/7/1  16/8/1 
f  17/5/1  19/6/1  20/7/1  18/8/1 
f  19/5/1  21/6/1  22/7/1  20/8/1 
f  21/5/1  23/6/1  24/7/1  22/8/1 
f  23/5/1  25/6/1  26/7/1  24/8/1 
f  25/5/1  27/6/1  28/7/1  26/8/1 
f  27/5/1  29/6/1  30/7/1  28/8/1 
f  29/5/1  31/6/1  32/7/1  30/8/1 
f  31/1/1  33/2/1  34/3/1  32/4/1 
f  33/1/1  35/2/1  36/3/1  34/4/1 
f  35/1/1  37/2/1  38/3/1  36/4/1 
f  37/1/1  39/2/1  40/3/1  38/4/1 
f  39/1/1  41/2/1  42/3/1  40/4/1 
f  43/1/1  44/2/1  2/3/1  1/4/1 
f  44/1/1  45/2/1  5/3/1  2/4/1 
f  45/1/1  46/2/1  7/3/1  5/4/1 
f  46/9/1  47/10/1  9/11/1  7/12/1 
f  47/9/1  48/10/1  11/11/1  9/12/1 
f  48/9/1  49/10/1  13/11/1  11/12/1 
f  49/9/1  50/10/1  15/11/1  13/12/1 
f  50/9/1  51/10/1  17/11/1  15/12/1 
f  51/9/1  52/10/1  19/11/1  17/12/1 
f  52/9/1  53/10/1  21/11/1  19/12/1 
f  53/9/1  54/10/1  23/11/1  21/12/1 
f  54/9/1  55/10/1  25/11/1  23/12/1 
f  55/9/1  56/10/1  27/11/1  25/12/1 
f  56/9/1  57/10/1  29/11/1  27/12/1 
f  57/9/1  58/10/1  31/11/1  29/12/1 
f  58/9/1  59/10/1  33/11/1  31/12/1 
f  59/9/1  60/10/1  35/11/1  33/12/1 
f  60/1/1  61/2/1  37/3/1  35/4/1 
f  61/1/1  62/2/1  39/3/1  37/4/1 
f  62/1/1  63/2/1  41/3/1  39/4/1 
f  64/1/1  65/2/1  44/3/1  43/4/1 
f  65/1/1  66/2/1  45/3/1  44/4/1 
f  66/9/1  67/10/1  46/11/1  45/12/1 
f  67/9/1  68/10/1  47/11/1  46/12/1 
f  68/9/1  69/10/1  48/11/1  47/12/1 
f  69/9/1  70/10/1  49/11/1  48/12/1 
f  70/9/1  71/10/1  50/11/1  49/12/1 
f  71/9/1  72/10/1  51/11/1  50/12/1 
f  72/9/1  73/10/1  52/11/1  51/12/1 
f  73/9/1  74/10/1  53/11/1  52/12/1 
f  74/9/1  75/10/1  54/11/1  53/12/1 
f  75/9/1  76/10/1  55/11/1  54/12/1 
f  76/9/1  77/10/1  56/11/1  55/12/1 
f  77/9/1  78/10/1  57/11/1  56/12/1 
f  78/9/1  79/10/1  58/11/1  57/12/1 
f  79/9/1  80/10/1  59/11/1  58/12/1 
f  80/9/1  81/10/1  60/11/1  59/12/1 
f  81/9/1  82/10/1  61/11/1  60/12/1 
f  82/1/1  83/2/1  62/3/1  61/4/1 
f  83/1/1  84/2/1  63/3/1  62/4/1 
f  85/1/1  86/2/1  65/3/1  64/4/1 
f  86/9/1  87/10/1  66/11/1  65/12/1 
f  87/9/1  88/10/1  67/11/1  66/12/1 
f  88/9/1  89/10/1  68/11/1  67/12/1 
f  89/9/1  90/10/1  69/11/1  68/12/1 
f  90/9/1  91/10/1  70/11/1  69/12/1 
f  91/9/1  92/10/1  71/11/1  70/12/1 
f  92/9/1  93/10/1  72/11/1  71/12/1 
f  93/9/1  94/10/1  73/11/1  72/12/1 
f  94/9/1  95/10/1  74/11/1  73/12/1 
f  95/9/1  96/10/1  75/11/1  74/12/1 
f  96/9/1  97/10/1  76/11/1  75/12/1 
f  97/9/1  98/10/1  77/11/1  76/12/1 
f  98/9/1  99/10/1  78/11/1  77/12/1 
f  99/9/1  100/10/1  79/11/1  78/12/1 
f  100/9/1  101/10/1  80/11/1  79/12/1 
f  101/9/1  102/10/1  81/11/1  80/12/1 
f  102/9/1  103/10/1  82/11/1  81/12/1 
f  103/9/1  104/10/1  83/11/1  82/12/1 
f  104/1/1  105/2/1  84/3/1  83/4/1 
f  106/1/1  107/2/1  86/3/1  85/4/1 
f  107/9/1  108/10/1  87/11/1  86/12/1 
f  108/9/1  109/10/1  88/11/1  87/12/1 
f  109/9/1  110/10/1  89/11/1  88/12/1 
f  110/9/1  111/10/1  90/11/1  89/12/1 
f  111/9/1  112/10/1  91/11/1  90/12/1 
f  112/9/1  113/10/1  92/11/1  91/12/1 
f  113/9/1  114/10/1  93/11/1  92/12/1 
f  114/9/1  115/10/1  94/11/1  93/12/1 
f  115/9/1  116/10/1  95/11/1  94/12/1 
f  116/9/1  117/10/1  96/11/1  95/12/1 
f  117/9/1  118/10/1  97/11/1  96/12/1 
f  118/9/1  119/10/1  98/11/1  97/12/1 
f  119/9/1  120/10/1  99/11/1  98/12/1 
f  120/9/1  121/10/1  100/11/1  99/12/1 
f  121/9/1  122/10/1  101/11/1  100/12/1 
f  122/9/1  123/10/1  102/11/1  101/12/1 
f  123/9/1  124/10/1  103/11/1  102/12/1 
f  124/9/1  125/10/1  104/11/1  103/12/1 
f  125/1/1  126/2/1  105/3/1  104/4/1 
f  127/1/1  128/2/1  107/3/1  106/4/1 
f  128/9/1  129/10/1  108/11/1  107/12/1 
f  129/9/1  130/10/1  109/11/1  108/12/1 
f  130/9/1  131/10/1  110/11/1  109/12/1 
f  131/9/1  132/10/1  111/11/1  110/12/1 
f  132/9/1  133/10/1  112/11/1  111/12/1 
f  133/9/1  134/10/1  113/11/1  112/12/1 
f  134/9/1  135/10/1  114/11/1  113/12/1 
f  135/9/1  136/10/1  115/11/1  114/12/1 
f  136/9/1  137/10/1  116/11/1  115/12/1 
f  137/9/1  138/10/1  117/11/1  116/12/1 
f  138/9/1  139/10/1  118/11/1  117/12/1 
f  139/9/1  140/10/1  119/11/1  118/12/1 
f  140/9/1  141/10/1  120/11/1  119/12/1 
f  141/9/1  142/10/1  121/11/1  120/12/1 
f  142/9/1  143/10/1  122/11/1  121/12/1 
f  143/9/1  144/10/1  123/11/1  122/12/1 
f  144/9/1  145/10/1  124/11/1  123/12/1 
f  145/9/1  146/10/1  125/11/1  124/12/1 
f  146/1/1  147/2/1  126/3/1  125/4/1 
f  148/1/1  149/2/1  128/3/1  127/4/1 
f  149/9/1  150/10/1  129/11/1  128/12/1 
f  150/9/1  151/10/1  130/11/1  129/12/1 
f  151/9/1  152/10/1  131/11/1  130/12/1 
f  152/9/1  153/10/1  132/11/1  131/12/1 
f  153/9/1  154/10/1  133/11/1  132/12/1 
f  154/9/1  155/10/1  134/11/1  133/12/1 
f  155/9/1  156/10/1  135/11/1  134/12/1 
f  156/9/1  157/10/1  136/11/1  135/12/1 
f  157/9/1  158/10/1  137/11/1  136/12/1 
f  158/9/1  159/10/1  138/11/1  137/12/1 
f  159/9/1  160/10/1  139/11/1  138/12/1 
f  160/9/1  161/10/1  140/11/1  139/12/1 
f  161/9/1  162/10/1  141/11/1  140/12/1 
f  162/9/1  163/10/1  142/11/1  141/12/1 
f  163/9/1  164/10/1  143/11/1  142/12/1 
f  164/9/1  165/10/1  144/11/1  143/12/1 
f  165/9/1  166/10/1  145/11/1  144/12/1 
f  166/9/1  167/10/1  146/11/1  145/12/1 
f  167/1/1  168/2/1  147/3/1  146/4/1 
f  169/1/1  170/2/1  149/3/1  148/4/1 
f  170/9/1  171/10/1  150/11/1  149/12/1 
f  171/9/1  172/10/1  151/11/1  150/12/1 
f  172/9/1  173/10/1  152/11/1  151/12/1 
f  173/9/1  174/10/1  153/11/1  152/12/1 
f  174/9/1  175/10/1  154/11/1  153/12/1 
f  175/9/1  176/10/1  155/11/1  154/12/1 
f  176/9/1  177/10/1  156/11/1  155/12/1 
f  177/9/1  178/10/1  157/11/1  156/12/1 
f  178/9/1  179/10/1  158/11/1  157/12/1 
f  179/9/1  180/10/1  159/11/1  158/12/1 
f  180/9/1  181/10/1  160/11/1  159/12/1 
f  181/9/1  182/10/1  161/11/1  160/12/1 
f  182/9/1  183/10/1  162/11/1  161/12/1 
f  183/9/1  184/10/1  163/11/1  162/12/1 
f  184/9/1  185/10/1  164/11/1  163/12/1 
f  185/9/1  186/10/1  165/11/1  164/12/1 
f  186/9/1  187/10/1  166/11/1  165/12/1 
f  187/9/1  188/10/1  167/11/1  166/12/1 
f  188/1/1  189/2/1  168/3/1  167/4/1 
f  190/1/1  191/2/1  170/3/1  169/4/1 
f  191/9/1  192/10/1  171/11/1  170/12/1 
f  192/9/1  193/10/1  172/11/1  171/12/1 
f  193/9/1  194/10/1  173/11/1  172/12/1 
f  194/9/1  195/10/1  174/11/1  173/12/1 
f  195/9/1  196/10/1  175/11/1  174/12/1 
f  196/9/1  197/10/1  176/11/1  175/12/1 
f  197/9/1  198/10/1  177/11/1  176/12/1 
f  198/9/1  199/10/1  178/11/1  177/12/1 
f  199/9/1  200/10/1  179/11/1  178/12/1 
f  200/9/1  201/10/1  180/11/1  179/12/1 
f  201/9/1  202/10/1  181/11/1  180/12/1 
f  202/9/1  203/10/1  182/11/1  181/12/1 
f  203/9/1  204/10/1  183/11/1  182/12/1 
f  204/9/1  205/10/1  184/11/1  183/12/1 
f  205/9/1  206/10/1  185/11/1  184/12/1 
f  206/9/1  207/10/1  186/11/1  185/12/1 
f  207/9/1  208/10/1  187/11/1  186/12/1 
f  208/9/1  209/10/1  188/11/1  187/12/1 
f  209/1/1  210/2/1  189/3/1  188/4/1 
f  211/1/1  212/2/1  191/3/1  190/4/1 
f  212/9/1  213/10/1  192/11/1  191/12/1 
f  213/9/1  214/10/1  193/11/1  192/12/1 
f  214/9/1  215/10/1  194/11/1  193/12/1 
f  215/9/1  216/10/1  195/11/1  194/12/1 
f  216/9/1  217/10/1  196/11/1  195/12/1 
f  217/9/1  218/10/1  197/11/1  196/12/1 
f  218/9/1  219/10/1  198/11/1  197/12/1 
f  219/9/1  220/10/1  199/11/1  198/12/1 
f  220/9/1  221/10/1  200/11/1  199/12/1 
f  221/9/1  222/10/1  201/11/1  200/12/1 
f  222/9/1  223/10/1  202/11/1  201/12/1 
f  223/9/1  224/10/1  203/11/1  202/12/1 
f  224/9/1  225/10/1  204/11/1  203/12/1 
f  225/9/1  226/10/1  205/11/1  204/12/1 
f  226/9/1  227/10/1  206/11/1  205/12/1 
f  227/9/1  228/10/1  207/11/1  206/12/1 
f  228/9/1  229/10/1  208/11/1  207/12/1 
f  229/9/1  230/10/1  209/11/1  208/12/1 
f  230/1/1  231/2/1  210/3/1  209/4/1 
f  232/1/1  233/2/1  212/3/1  211/4/1 
f  233/9/1  234/10/1  213/11/1  212/12/1 
f  234/9/1  235/10/1  214/11/1  213/12/1 
f  235/9/1  236/10/1  215/11/1  214/12/1 
f  236/9/1  237/10/1  216/11/1  215/12/1 
f  237/9/1  238/10/1  217/11/1  216/12/1 
f  238/9/1  239/10/1  218/11/1  217/12/1 
f  239/9/1  240/10/1  219/11/1  218/12/1 
f  240/9/1  241/10/1  220/11/1  219/12/1 
f  241/9/1  242/10/1  221/11/1  220/12/1 
f  242/9/1  243/10/1  222/11/1  221/12/1 
f  243/9/1  244/10/1  223/11/1  222/12/1 
f  244/9/1  245/10/1  224/11/1  223/12/1 
f  245/9/1  246/10/1  225/11/1  224/12/1 
f  246/9/1  247/10/1  226/11/1  225/12/1 
f  247/9/1  248/10/1  227/11/1  226/12/1 
f  248/9/1  249/10/1  228/11/1  227/12/1 
f  249/9/1  250/10/1  229/11/1  228/12/1 
f  250/9/1  251/10/1  230/11/1  229/12/1 
f  251/1/1  252/2/1  231/3/1  230/4/1 
f  253/1/1  254/2/1  233/3/1  232/4/1 
f  254/9/1  255/10/1  234/11/1  233/12/1 
f  255/9/1  256/10/1  235/11/1  234/12/1 
f  256/9/1  257/10/1  236/11/1  235/12/1 
f  257/9/1  258/10/1  237/11/1  236/12/1 
f  258/9/1  259/10/1  238/11/1  237/12/1 
f  259/9/1  260/10/1  239/11/1  238/12/1 
f  260/9/1  261/10/1  240/11/1  239/12/1 
f  261/9/1  262/10/1  241/11/1  240/12/1 
f  262/9/1  263/10/1  242/11/1  241/12/1 
f  263/9/1  264/10/1  243/11/1  242/12/1 
f  264/9/1  265/10/1  244/11/1  243/12/1 
f  265/9/1  266/10/1  245/11/1  244/12/1 
f  266/9/1  267/10/1  246/11/1  245/12/1 
f  267/9/1  268/10/1  247/11/1  246/12/1 
f  268/9/1  269/10/1  248/11/1  247/12/1 
f  269/9/1  270/10/1  249/11/1  248/12/1 
f  270/9/1  271/10/1  250/11/1  249/12/1 
f  271/9/1  272/10/1  251/11/1  250/12/1 
f  272/1/1  273/2/1  252/3/1  251/4/1 
f  274/1/1  275/2/1  254/3/1  253/4/1 
f  275/9/1  276/10/1  255/11/1  254/12/1 
f  276/9/1  277/10/1  256/11/1  255/12/1 
f  277/9/1  278/10/1  257/11/1  256/12/1 
f  278/9/1  279/10/1  258/11/1  257/12/1 
f  279/9/1  280/10/1  259/11/1  258/12/1 
f  280/9/1  281/10/1  260/11/1  259/12/1 
f  281/9/1  282/10/1  261/11/1  260/12/1 
f  282/9/1  283/10/1  262/11/1  261/12/1 
f  283/9/1  284/10/1  263/11/1  262/12/1 
f  284/9/1  285/10/1  264/11/1  263/12/1 
f  285/9/1  286/10/1  265/11/1  264/12/1 
f  286/9/1  287/10/1  266/11/1  265/12/1 
f  287/9/1  288/10/1  267/11/1  266/12/1 
f  288/9/1  289/10/1  268/11/1  267/12/1 
f  289/9/1  290/10/1  269/11/1  268/12/1 
f  290/9/1  291/10/1  270/11/1  269/12/1 
f  291/9/1  292/10/1  271/11/1  270/12/1 
f  292/9/1  293/10/1  272/11/1  271/12/1 
f  293/1/1  294/2/1  273/3/1  272/4/1 
f  295/1/1  296/2/1  275/3/1  274/4/1 
f  296/9/1  297/10/1  276/11/1  275/12/1 
f  297/9/1  298/10/1  277/11/1  276/12/1 
f  298/9/1  299/10/1  278/11/1  277/12/1 
f  299/9/1  300/10/1  279/11/1  278/12/1 
f  300/9/1  301/10/1  280/11/1  279/12/1 
f  301/9/1  302/10/1  281/11/1  280/12/1 
f  302/9/1  303/10/1  282/11/1  281/12/1 
f  303/9/1  304/10/1  283/11/1  282/12/1 
f  304/9/1  305/10/1  284/11/1  283/12/1 
f  305/9/1  306/10/1  285/11/1  284/12/1 
f  306/9/1  307/10/1  286/11/1  285/12/1 
f  307/9/1  308/10/1  287/11/1  286/12/1 
f  308/9/1  309/10/1  288/11/1  287/12/1 
f  309/9/1  310/10/1  289/11/1  288/12/1 
f  310/9/1  311/10/1  290/11/1  289/12/1 
f  311/9/1  312/10/1  291/11/1  290/12/1 
f  312/9/1  313/10/1  292/11/1  291/12/1 
f  313/9/1  314/10/1  293/11/1  292/12/1 
f  314/1/1  315/2/1  294/3/1  293/4/1 
f  316/1/1  317/2/1  296/3/1  295/4/1 
f  317/9/1  318/10/1  297/11/1  296/12/1 
f  318/9/1  319/10/1  298/11/1  297/12/1 
f  319/9/1  320/10/1  299/11/1  298/12/1 
f  320/9/1  321/10/1  300/11/1  299/12/1 
f  321/9/1  322/10/1  301/11/1  300/12/1 
f  322/9/1  323/10/1  302/11/1  301/12/1 
f  323/9/1  324/10/1  303/11/1  302/12/1 
f  324/9/1  325/10/1  304/11/1  303/12/1 
f  325/9/1  326/10/1  305/11/1  304/12/1 
f  326/9/1  327/10/1  306/11/1  305/12/1 
f  327/9/1  328/10/1  307/11/1  306/12/1 
f  328/9/1  329/10/1  308/11/1  307/12/1 
f  329/9/1  330/10/1  309/11/1  308/12/1 
f  330/9/1  331/10/1  310/11/1  309/12/1 
f  331/9/1  332/10/1  311/11/1  310/12/1 
f  332/9/1  333/10/1  312/11/1  311/12/1 
f  333/9/1  334/10/1  313/11/1  312/12/1 
f  334/9/1  335/10/1  314/11/1  313/12/1 
f  335/1/1  336/2/1  315/3/1  314/4/1 
f  337/1/1  338/2/1  317/3/1  316/4/1 
f  338/9/1  339/10/1  318/11/1  317/12/1 
f  339/9/1  340/10/1  319/11/1  318/12/1 
f  340/9/1  341/10/1  320/11/1  319/12/1 
f  341/9/1  342/10/1  321/11/1  320/12/1 
f  342/9/1  343/10/1  322/11/1  321/12/1 
f  343/9/1  344/10/1  323/11/1  322/12/1 
f  344/9/1  345/10/1  324/11/1  323/12/1 
f  345/9/1  346/10/1  325/11/1  324/12/1 
f  346/9/1  347/10/1  326/11/1  325/12/1 
f  347/9/1  348/10/1  327/11/1  326/12/1 
f  348/9/1  349/10/1  328/11/1  327/12/1 
f  349/9/1  350/10/1  329/11/1  328/12/1 
f  350/9/1  351/10/1  330/11/1  329/12/1 
f  351/9/1  352/10/1  331/11/1  330/12/1 
f  352/9/1  353/10/1  332/11/1  331/12/1 
f  353/9/1  354/10/1  333/11/1  332/12/1 
f  354/9/1  355/10/1  334/11/1  333/12/1 
f  355/9/1  356/10/1  335/11/1  334/12/1 
f  356/1/1  357/2/1  336/3/1  335/4/1 
f  358/1/1  359/2/1  338/3/1  337/4/1 
f  359/9/1  360/10/1  339/11/1  338/12/1 
f  360/9/1  361/10/1  340/11/1  339/12/1 
f  361/9/1  362/10/1  341/11/1  340/12/1 
f  362/9/1  363/10/1  342/11/1  341/12/1 
f  363/9/1  364/10/1  343/11/1  342/12/1 
f  364/9/1  365/10/1  344/11/1  343/12/1 
f  365/9/1  366/10/1  345/11/1  344/12/1 
f  366/9/1  367/10/1  346/11/1  345/12/1 
f  367/9/1  368/10/1  347/11/1  346/12/1 
f  368/9/1  369/10/1  348/11/1  347/12/1 
f  369/9/1  370/10/1  349/11/1  348/12/1 
f  370/9/1  371/10/1  350/11/1  349/12/1 
f  371/9/1  372/10/1  351/11/1  350/12/1 
f  372/9/1  373/10/1  352/11/1  351/12/1 
f  373/9/1  374/10/1  353/11/1  352/12/1 
f  374/9/1  375/10/1  354/11/1  353/12/1 
f  375/9/1  376/10/1  355/11/1  354/12/1 
f  376/9/1  377/10/1  356/11/1  355/12/1 
f  377/1/1  378/2/1  357/3/1  356/4/1 
f  379/1/1  380/2/1  359/3/1  358/4/1 
f  380/9/1  381/10/1  360/11/1  359/12/1 
f  381/9/1  382/10/1  361/11/1  360/12/1 
f  382/9/1  383/10/1  362/11/1  361/12/1 
f  383/9/1  384/10/1  363/11/1  362/12/1 
f  384/9/1  385/10/1  364/11/1  363/12/1 
f  385/9/1  386/10/1  365/11/1  364/12/1 
f  386/9/1  387/10/1  366/11/1  365/12/1 
f  387/9/1  388/10/1  367/11/1  366/12/1 
f  388/9/1  389/10/1  368/11/1  367/12/1 
f  389/9/1  390/10/1  369/11/1  368/12/1 
f  390/9/1  391/10/1  370/11/1  369/12/1 
f  391/9/1  392/10/1  371/11/1  370/12/1 
f  392/9/1  393/10/1  372/11/1  371/12/1 
f  393/9/1  394/10/1  373/11/1  372/12/1 
f  394/9/1  395/10/1  374/11/1  373/12/1 
f  395/9/1  396/10/1  375/11/1  374/12/1 
f  396/9/1  397/10/1  376/11/1  375/12/1 
f  397/9/1  398/10/1  377/11/1  376/12/1 
f  398/1/1  399/2/1  378/3/1  377/4/1 
f  400/1/1  401/2/1  380/3/1  379/4/1 
f  401/9/1  402/10/1  381/11/1  380/12/1 
f  402/9/1  403/10/1  382/11/1  381/12/1 
f  403/9/1  404/10/1  383/11/1  382/12/1 
f  404/9/1  405/10/1  384/11/1  383/12/1 
f  405/9/1  406/10/1  385/11/1  384/12/1 
f  406/9/1  407/10/1  386/11/1  385/12/1 
f  407/9/1  408/10/1  387/11/1  386/12/1 
f  408/9/1  409/10/1  388/11/1  387/12/1 
f  409/9/1  410/10/1  389/11/1  388/12/1 
f  410/9/1  411/10/1  390/11/1  389/12/1 
f  411/9/1  412/10/1  391/11/1  390/12/1 
f  412/9/1  413/10/1  392/11/1  391/12/1 
f  413/9/1  414/10/1  393/11/1  392/12/1 
f  414/9/1  415/10/1  394/11/1  393/12/1 
f  415/9/1  416/10/1  395/11/1  394/12/1 
f  416/9/1  417/10/1  396/11/1  395/12/1 
f  417/9/1  418/10/1  397/11/1  396/12/1 
f  418/9/1  419/10/1  398/11/1  397/12/1 
f  419/1/1  420/2/1  399/3/1  398/4/1 
f  421/1/1  422/2/1  401/3/1  400/4/1 
f  422/9/1  423/10/1  402/11/1  401/12/1 
f  423/9/1  424/10/1  403/11/1  402/12/1 
f  424/9/1  425/10/1  404/11/1  403/12/1 
f  425/9/1  426/10/1  405/11/1  404/12/1 
f  426/9/1  427/10/1  406/11/1  405/12/1 
f  427/9/1  428/10/1  407/11/1  406/12/1 
f  428/9/1  429/10/1  408/11/1  407/12/1 
f  429/9/1  430/10/1  409/11/1  408/12/1 
f  430/9/1  431/10/1  410/11/1  409/12/1 
f  431/9/1  432/10/1  411/11/1  410/12/1 
f  432/9/1  433/10/1  412/11/1  411/12/1 
f  433/9/1  434/10/1  413/11/1  412/12/1 
f  434/9/1  435/10/1  414/11/1  413/12/1 
f  435/9/1  436/10/1  415/11/1  414/12/1 
f  436/9/1  437/10/1  416/11/1  415/12/1 
f  437/9/1  438/10/1  417/11/1  416/12/1 
f  438/9/1  439/10/1  418/11/1  417/12/1 
f  439/9/1  440/10/1  419/11/1  418/12/1 
f  440/1/1  441/2/1  420/3/1  419/4/1 
g mesh_[01]_[00]
f  76/13/1  77/14/1  56/15/1  55/16/1 
f  77/13/1  78/14/1  57/15/1  56/16/1 
f  78/13/1  79/14/1  58/15/1  57/16/1 
f  79/13/1  80/14/1  59/15/1  58/16/1 
f  80/13/1  81/14/1  60/15/1  59/16/1 
f  81/13/1  82/14/1  61/15/1  60/16/1 
f  97/13/1  98/14/1  77/15/1  76/16/1 
f  99/17/1  100/18/1  79/19/1  78/20/1 
f  100/21/1  101/22/1  80/23/1  79/24/1 
f  101/25/1  102/26/1  81/27/1  80/28/1 
f  102/17/1  103/18/1  82/19/1  81/20/1 
f  103/21/1  104/22/1  83/23/1  82/24/1 
f  118/13/1  119/14/1  98/15/1  97/16/1 
f  120/29/1  121/30/1  100/31/1  99/32/1 
f  121/33/1  122/34/1  101/35/1  100/36/1 
f  122/37/1  123/38/1  102/39/1  101/40/1 
f  123/29/1  124/30/1  103/31/1  102/32/1 
f  124/33/1  125/34/1  104/35/1  103/36/1 
f  139/13/1  140/14/1  119/15/1  118/16/1 
f  142/17/1  143/18/1  122/19/1  121/20/1 
f  143/21/1  144/22/1  123/23/1  122/24/1 
f  160/13/1  161/14/1  140/15/1  139/16/1 
f  161/17/1  162/18/1  141/19/1  140/20/1 
f  162/21/1  163/22/1  142/23/1  141/24/1 
f  163/29/1  164/30/1  143/31/1  142/32/1 
f  164/33/1  165/34/1  144/35/1  143/36/1 
f  181/13/1  182/14/1  161/15/1  160/16/1 
f  182/29/1  183/30/1  162/31/1  161/32/1 
f  183/33/1  184/34/1  163/35/1  162/36/1 
f  202/13/1  203/14/1  182/15/1  181/16/1 
f  223/13/1  224/14/1  203/15/1  202/16/1 
f  224/13/1  225/14/1  204/15/1  203/16/1 
f  225/13/1  226/14/1  205/15/1  204/16/1 
f  226/13/1  227/14/1  206/15/1  205/16/1 
f  227/13/1  228/14/1  207/15/1  206/16/1 
f  228/13/1  229/14/1  208/15/1  207/16/1 
f  229/13/1  230/14/1  209/15/1  208/16/1 
